<svg version="1.1" xmlns="http://www.w3.org/2000/svg" xmlns:xlink="http://www.w3.org/1999/xlink" id="svg-editor-canvas" class="canvas" width="100%" height="100%">
<g data-item-type="image" data-item="Image" data-logo-item="" id="logo__item--logo_0" class="logo__item logo__item--active logo__item-part--active">
    <g class="logo__item__inner" transform="translate(688.6400237336178 297) scale(0.8059100397507355 0.8059100397507355) rotate(0 0 0)">
        
<g>
	<g>
		<path fill="none" d="M80,107.6c2.4,1,4.8,2.1,7.1,3.2c-0.6,0.4-1.8,1.3-2.3,1.7c-2.1-0.8-4.2-1.7-6.3-2.5    C79,109.3,79.5,108.5,80,107.6z" data-part-id="logo__item--logo_0__0"></path>
		<path fill="#7E8BAA" d="M39.3,72.1c-0.2-0.5-0.5-1-0.8-1.6l-1-0.3l-1.1-0.4l-0.2-0.1c-4,3.2-7.5,7.2-10.1,11.7    c1.1,0.5,2.1,1.2,3.1,1.9C31.8,79,35.2,75.2,39.3,72.1z" data-part-id="logo__item--logo_0__1"></path>
		<path fill="#7E8BAA" d="M63,60.3c-2,0-3.9,0.1-5.8,0.4l-0.1,0.1c-0.9,0.9-0.8,1.7,0,3.6C59.1,64.2,61,64,63,64    c21.6,0,39.1,17.5,39.1,39.1c0,21.6-17.5,39.1-39.1,39.1c-21.6,0-39.1-17.5-39.1-39.1c0-2.5,0.3-5,0.7-7.4c-1.2-0.1-2.5-0.4-3.5-1    c-0.5,2.7-0.8,5.6-0.8,8.5c0,23.6,19.1,42.7,42.7,42.7c23.6,0,42.7-19.1,42.7-42.7C105.8,79.5,86.6,60.3,63,60.3z" data-part-id="logo__item--logo_0__2"></path>
		<path fill="#FFFFFF" d="M41.6,113.3c2.3-1.1,4.5-2.1,6.8-3.2c0,0.8,0.1,2.4,0.2,3.1c-2,0.8-4,1.6-6,2.5    C42.2,114.9,41.9,114.1,41.6,113.3z" data-part-id="logo__item--logo_0__3"></path>
		<path fill="#9DD08C" d="M56,66.7c-1.1-2.4-2.8-5-0.4-7.2c-1.1-2.8-2.3-5.5-3.7-8.2c-5,0.9-9.3,3.7-13.9,5.6    c-1.6,0.9-3.8,1.3-4.7,3.1c0.4,2.9,1.9,5.5,3.2,8.1c0.7,0.2,2.1,0.7,2.9,0.9c0.7,1.5,1.4,3,2.2,4.5C45.8,70,50.8,67.9,56,66.7z" data-part-id="logo__item--logo_0__4"></path>
		<path fill="#9DD08C" d="M42.2,130.6c8.8,7.1,21.2,9.5,31.9,5.8c11.6-3.7,20.8-14,23-26c3-14.2-4.5-29.9-17.4-36.5    c-7.3-3.8-16-5.3-24-3.1C42.5,73.7,32,85.1,29.9,98.4C27.7,110.3,32.7,123.2,42.2,130.6z M36.3,111.7    c-4.5-14.4,4.8-30.9,19.2-34.9c15.2-4.9,32.8,5.7,35.7,21.4c3.2,14.3-6.6,29.9-20.9,33.2C56.1,135.4,40,126,36.3,111.7z" data-part-id="logo__item--logo_0__5" class="logo__part--active"></path>
		<path fill="#9DD08C" d="M69.3,86.8c4,1.8,4-3.9,5-6.4C70.8,77.7,70.4,84.7,69.3,86.8z" data-part-id="logo__item--logo_0__6"></path>
		<path fill="#9DD08C" d="M54.3,80.6c-0.7,0.6-1.5,1.3-2.2,1.9c1,2,2,4,2.9,6.1c0.9-0.2,1.7-0.5,2.6-0.7    C56.5,85.4,55.4,83,54.3,80.6z" data-part-id="logo__item--logo_0__7"></path>
		<path fill="#9DD08C" d="M28,94.2c0.8-2.2,1.7-4.4,2.8-6.6c-1.7-2-3.6-3.6-6-4.7c-1.5,2.8-3.4,5.6-4.1,8.8    C21.9,94.5,25.6,93.7,28,94.2z" data-part-id="logo__item--logo_0__8"></path>
		<path fill="#9DD08C" d="M80.1,95.5c0.2,0.9,0.4,1.8,0.6,2.7c2.1-0.9,4.2-1.8,6.3-2.7c-0.1-0.7-0.3-2.2-0.3-3    C84.5,93.5,82.3,94.5,80.1,95.5z" data-part-id="logo__item--logo_0__9"></path>
		<path fill="#9DD08C" d="M40.2,96c2.1,0.8,4.2,1.7,6.3,2.5c0.6-0.4,1.8-1.3,2.3-1.7c-2.3-1.2-4.7-2.3-7.1-3.2    C41.2,94.4,40.7,95.2,40.2,96z" data-part-id="logo__item--logo_0__10"></path>
		<path fill="#9DD08C" d="M87.1,110.9c-2.3-1.2-4.7-2.3-7.1-3.2c-0.5,0.8-1,1.6-1.5,2.5c2.1,0.8,4.2,1.7,6.3,2.5    C85.3,112.2,86.5,111.3,87.1,110.9z" data-part-id="logo__item--logo_0__11"></path>
		<path fill="#9DD08C" d="M48.6,113.2c0-0.8-0.1-2.4-0.2-3.1c-2.3,1.1-4.5,2.1-6.8,3.2c0.3,0.8,0.6,1.6,1,2.4    C44.6,114.9,46.6,114.1,48.6,113.2z" data-part-id="logo__item--logo_0__12"></path>
		<path fill="#9DD08C" d="M58.6,118.3c-0.7-0.1-2.1-0.3-2.7-0.4c-0.8,2.5-1.5,5-2.1,7.5C57.6,125.5,57.6,121,58.6,118.3z" data-part-id="logo__item--logo_0__13"></path>
		<path fill="#9DD08C" d="M69.9,120.9c1,2.1,2,4.2,3,6.3c0.8-0.4,1.7-0.7,2.5-1c-1.1-2.4-2.2-4.8-3.3-7.1    C71.5,119.5,70.4,120.4,69.9,120.9z" data-part-id="logo__item--logo_0__14"></path>
		<path fill="#9DD08C" d="M64.3,107c2.1,0,3.9-1.7,3.9-3.9c0-0.8-0.3-1.6-0.7-2.2c-0.7-1-1.9-1.7-3.2-1.7c-2.1,0-3.9,1.7-3.9,3.9    l0,0C60.4,105.2,62.2,107,64.3,107z" data-part-id="logo__item--logo_0__15"></path>
	</g>
	<g>
		<path fill="#9DD08C" d="M98,3c26.5,44.9,16.3,61.7,16.3,61.7C88.9,47.4,59.4,48.7,59.4,48.7c18.8,6.5,38.7,14.2,48.7,35.9    c11.4,24.7-9.5,53.4-9.5,53.4C169.2,69.2,98,3,98,3z" data-part-id="logo__item--logo_0__16"></path>
		<path fill="#9DD08C" d="M102.6,55.6c4.8,1,9.5-2,10.6-6.8c1-4.8-2-9.5-6.8-10.6c-4.8-1-9.5,2-10.6,6.8    C94.8,49.8,97.8,54.6,102.6,55.6z" data-part-id="logo__item--logo_0__17"></path>
	</g>
</g>

    </g>
</g></svg>